<svg xmlns="http://www.w3.org/2000/svg" width="180" height="180" viewBox="0 0 180 180">
  <g fill="none" stroke="#00BFA6" stroke-width="2" stroke-linecap="round" stroke-linejoin="round" opacity="1">
    <!-- stethoscope motif A -->
    <g transform="translate(20,18)">
      <circle cx="8" cy="6" r="3.2"/>
      <circle cx="36" cy="6" r="3.2"/>
      <path d="M8 9 C8 30 22 34 22 46 M36 9 C36 30 22 34 22 46"/>
      <path d="M22 46 C22 66 44 66 44 84 C44 98 30 98 30 108"/>
      <circle cx="30" cy="116" r="8"/>
      <circle cx="30" cy="116" r="3.4"/>
    </g>
    <!-- stethoscope motif B (rotated, offset for texture) -->
    <g transform="translate(112,96) rotate(24)">
      <circle cx="8" cy="6" r="3.2"/>
      <circle cx="36" cy="6" r="3.2"/>
      <path d="M8 9 C8 30 22 34 22 46 M36 9 C36 30 22 34 22 46"/>
      <path d="M22 46 C22 66 44 66 44 84 C44 98 30 98 30 108"/>
      <circle cx="30" cy="116" r="8"/>
      <circle cx="30" cy="116" r="3.4"/>
    </g>
  </g>
</svg>
