<svg id="Calque_1" data-name="Calque 1" xmlns="http://www.w3.org/2000/svg" viewBox="0 0 565 140"><defs><style>.cls-1{fill:#0061ac;}</style></defs><polygon class="cls-1" points="300.23 104.82 298.42 105.99 564.88 105.99 564.88 104.82 300.23 104.82"/><polygon class="cls-1" points="0.26 105.08 0.26 106.25 266.72 106.25 264.91 105.08 0.26 105.08"/><path class="cls-1" d="M358.86,39.86v7.5c0,1.81-.26,4.92,1.81,5.7v.13h-7.89v-.13c2.07-.78,1.81-3.89,1.81-5.7V31.58c0-1.81.38-4.92-1.81-5.7v-.13h7.89v.13c-2.07.78-1.81,3.89-1.81,5.83v5.17h15V31.71c0-1.94.26-5.05-1.81-5.83v-.13H380v.13c-2.07.78-1.82,3.89-1.82,5.7V47.36c0,1.81-.25,4.92,1.82,5.7v.13h-7.89v-.13c2.07-.78,1.81-3.89,1.81-5.7v-7.5Z"/><path class="cls-1" d="M406.35,24.33a12.11,12.11,0,0,1-6.6-2.46,12.23,12.23,0,0,1-6.86,2.46L399.75,18ZM389.14,39.09c0,5.81,4.14,11.77,10.61,11.77S410.1,46.2,410.1,40s-3.87-11.9-10.35-11.9-10.61,4.65-10.61,11m25.75.12c0,8.54-7,14.63-15.27,14.63s-15.27-6-15.27-14.37c0-8,6.86-14.62,15.66-14.36,8.67,0,14.88,6.6,14.88,14.1"/><path class="cls-1" d="M429.9,25.75c5.44,0,9.58,2.72,9.58,7.38S435,40.9,430.29,40.9a7.5,7.5,0,0,1-3-.52c3.48-.26,7.37-2.46,7.37-6.47,0-3.63-2.59-5-5.82-5a21.88,21.88,0,0,0-3,.13V47.75c0,2.33,0,4,2.2,5.31v.13h-8.28v-.13c2.07-.78,1.81-3.89,1.81-5.7V31.71c0-1.94.26-4.92-1.81-5.83v-.13Z"/><path class="cls-1" d="M445,31.71c0-1.94.26-4.92-1.81-5.83v-.12h7.9v.12c-2.07.91-1.81,3.89-1.81,5.83V47.36c0,1.82-.26,4.92,1.81,5.7v.13h-7.9v-.13c2.07-.78,1.81-3.88,1.81-5.7Z"/><path class="cls-1" d="M466,47.75c0,2.33,0,4,2.19,5.31v.12h-8.27v-.12c2.07-.78,1.81-3.88,1.81-5.69V28.86h-3.62a7.63,7.63,0,0,0-5.06,1.55l1.43-4.91h.13a3.39,3.39,0,0,0,1.55.25h16.57a5.14,5.14,0,0,0,1.93-.25h.14l-1.43,4.91h-.12c-.52-1.42-2.21-1.55-3.51-1.55H466Z"/><path class="cls-1" d="M490.08,29.38l-4,10.48h8.16ZM484.9,42.83l-2.07,6c-.91,2.33-1.17,3.49.78,4.27v.13H476v-.13c2.47-1.17,3.1-3.5,4-6l7-17.33c.51-1.43,1.29-3.24-.66-3.88v-.14h6.61L501.6,47.1c.91,2.46,1.69,4.79,4,6v.13h-8.54v-.13c2.07-.91,1.68-1.43.64-4.27l-2.19-6Z"/><path class="cls-1" d="M528.38,50.47c-1.81,2.33-5.18,3.36-8.15,3.36A10.67,10.67,0,0,1,512.72,51c-2.2-2.46-2.06-5.31-2.06-8.28V31.58c0-1.81.25-4.79-1.82-5.69v-.14h7.89v.14c-2.07.9-1.81,3.88-1.81,5.69V42.71c0,5.56,2.21,8.15,6.61,8.15a7.53,7.53,0,0,0,6.07-3c.91-1.16.78-2.2.78-3.75V31.58c0-1.81.26-4.79-1.81-5.69v-.14h7.9l.13.14c-2.21.9-1.94,3.88-1.94,5.82V47.37c0,1.8-.27,4.91,1.94,5.69v.13h-6.22Z"/><path class="cls-1" d="M544.82,48.92c-1,1.29-2.33,3.11.26,4.14v.13h-8.16v-.13l11.65-14.49-6.08-8.67c-1.17-1.69-2.2-3.37-4-4.14h4.79c1.3,0,1.68.38,2.07,1l6.08,8.67,4.14-5.56c1-1.43,2.45-3.63-.38-4v-.12h7.63l-9.45,12.42L560,48c1.3,1.94,2.59,4.27,5,5.18h-4.78a3.11,3.11,0,0,1-2.72-1.43l-7-10.47Z"/><path class="cls-1" d="M359.51,90.33a12.5,12.5,0,0,0,3.1.26c6.22,0,11.78-3.23,11.78-10.35,0-7.38-4.14-11-11.14-11a13,13,0,0,0-3.74.52ZM355.37,72c0-1.94.25-4.91-1.95-5.56v-.13h10.23c9.44,0,15.39,5.17,15.39,13.46s-6.21,14-15.53,14H353.42v-.14c2.07-1.55,1.95-3.49,1.95-5.94Z"/><path class="cls-1" d="M393.15,90.07l5.31.52a10.29,10.29,0,0,0,7.63-2.46h.13l-1.94,5.43H386.93c2.21-.78,1.95-3.88,1.95-5.82V72.08c0-1.81.26-4.92-1.95-5.69v-.13h13.34a3.67,3.67,0,0,0,2.07-.26v4.92c-1.43-1.55-3.1-1.68-4.92-1.68a23.09,23.09,0,0,0-4.27.25v7.77h4.91a4.11,4.11,0,0,0,1.82-.26H400v4.4h-.13c-.64-1.16-2.33-1.16-3.63-1.16h-3.1Z"/><path class="cls-1" d="M450.09,66.26c5.31,0,9.45,2.59,9.45,7.25s-4.4,7.9-9.06,7.9a6.83,6.83,0,0,1-3.11-.65c3.62-.13,7.51-2.46,7.51-6.35s-2.59-5.17-5.95-5.17a23.05,23.05,0,0,0-3,.26V88.26c0,2.33,0,4,2.2,5.3h-8.28c2.2-.77,1.94-3.88,1.94-5.82V72.08c0-1.81.26-4.92-1.81-5.69v-.13Z"/><path class="cls-1" d="M479.08,69.76l-4.15,10.48h8.29ZM473.9,83.34l-2.2,5.82c-.91,2.33-1.17,3.62.9,4.4h-7.76c2.46-1.29,3.24-3.62,4.14-6l6.86-17.34c.65-1.55,1.42-3.24-.52-3.88v-.13h6.48l8.66,21.35c1,2.33,1.69,4.66,4.14,6h-8.54c1.95-1,1.7-1.42.52-4.4l-2.2-5.82Z"/><path class="cls-1" d="M511.17,66.26c5.56,0,8.55,2.85,8.55,6.73,0,3.63-3.11,6.47-6.61,7.25l6.08,7.5a24.33,24.33,0,0,0,6.73,5.82H522c-2.2,0-3.62-.51-4.79-2.07l-5-6.21-3.88-6c3.36-.39,7.24-1.94,7.24-5.82,0-3.11-2.59-4.79-5.44-4.66a23.22,23.22,0,0,0-2.84.26V87.74c0,1.94-.26,5.05,1.94,5.82h-8c2.2-.77,1.94-3.88,1.94-5.82V72.08c0-1.81.26-4.92-1.94-5.69v-.13Z"/><path class="cls-1" d="M530.45,72.08c0-1.81.26-4.92-1.81-5.69v-.13h7.9v.13c-2.07.77-1.81,3.88-1.81,5.69V87.74c0,1.94-.26,4.92,1.81,5.82v.13h-7.9v-.13c2.07-.77,1.81-3.88,1.81-5.82Z"/><path class="cls-1" d="M560.74,71.18a9.68,9.68,0,0,0-6.6-2.59c-2.33,0-5.31.91-5.31,3.76,0,5.69,14.23,5.69,14.23,13.32,0,4.4-4.65,8.67-11.13,8.67a21.45,21.45,0,0,1-7.5-1.29l-1.16-5.18a14.84,14.84,0,0,0,9.18,3.36c2.34,0,6-1.29,6-4.26,0-6.48-14.37-5.31-14.37-14.11,0-5.3,5.31-7.24,10.48-7.24a20.63,20.63,0,0,1,6.22.9Z"/><path class="cls-1" d="M13.46,27.83,9.57,38.31h7.77ZM8.54,41.41l-2.07,6c-.78,2.32-1,3.49.78,4.26v.14H0v-.14c2.33-1.29,3-3.62,3.88-6l6.61-17.34c.52-1.55,1.29-3.24-.65-3.88v-.13h6.21l8.28,21.35c.91,2.33,1.55,4.66,3.89,6v.14H20.07v-.14c1.93-.9,1.67-1.42.51-4.26l-2.07-6Z"/><path class="cls-1" d="M45,29.25a9.32,9.32,0,0,0-6.22-2.59c-2.32,0-5.17.91-5.17,3.89,0,5.69,13.58,5.56,13.58,13.19,0,4.53-4.39,8.67-10.6,8.67a18.51,18.51,0,0,1-7-1.29l-1.17-5.18a13.61,13.61,0,0,0,8.68,3.49c2.19,0,5.56-1.42,5.56-4.4,0-6.46-13.58-5.29-13.58-14.1,0-5.17,5.17-7.25,10-7.25a19.21,19.21,0,0,1,5.95.91Z"/><path class="cls-1" d="M65.35,29.25a9.27,9.27,0,0,0-6.21-2.59c-2.33,0-5.18.91-5.18,3.89,0,5.69,13.59,5.56,13.59,13.19,0,4.53-4.39,8.67-10.48,8.67A18.74,18.74,0,0,1,50,51.12l-1.16-5.18a13.6,13.6,0,0,0,8.67,3.49c2.2,0,5.7-1.42,5.7-4.4,0-6.46-13.6-5.29-13.6-14.1,0-5.17,5.06-7.25,9.84-7.25a18.59,18.59,0,0,1,5.95.91Z"/><path class="cls-1" d="M72,30.16c0-1.82.26-4.92-1.69-5.7v-.13h7.51v.13c-2.07.78-1.81,3.88-1.81,5.7V45.94c0,1.81-.26,4.92,1.81,5.7v.12H70.27v-.12c2-.78,1.69-3.89,1.69-5.7Z"/><path class="cls-1" d="M95.76,29.25a9.27,9.27,0,0,0-6.2-2.59c-2.2,0-5.18.91-5.18,3.89C84.38,36.24,98,36.11,98,43.74c0,4.53-4.39,8.67-10.47,8.67a18.79,18.79,0,0,1-7.13-1.29l-1.15-5.18a13.58,13.58,0,0,0,8.66,3.49c2.21,0,5.7-1.42,5.7-4.4,0-6.46-13.59-5.29-13.59-14.1,0-5.17,5-7.25,9.84-7.25a18.58,18.58,0,0,1,5.94.91Z"/><path class="cls-1" d="M110,46.33c0,2.33,0,4,2.07,5.3v.13H104.3v-.13c2-.77,1.69-3.88,1.69-5.69V27.31h-3.5A6.66,6.66,0,0,0,97.84,29h-.13l1.42-4.92h.13a2.54,2.54,0,0,0,1.42.26h15.79a4.09,4.09,0,0,0,1.81-.26h.14L117.12,29H117c-.51-1.43-2.06-1.68-3.35-1.68H110Z"/><path class="cls-1" d="M130.84,27.83,127,38.31h7.76Zm-4.92,13.58-2.06,6c-.79,2.32-1.18,3.49.77,4.26v.14h-7.25v-.14c2.33-1.29,3-3.62,3.75-6l6.6-17.34c.65-1.55,1.3-3.24-.51-3.88v-.13h6.21l8.27,21.35c.91,2.33,1.56,4.66,3.89,6v.14h-8.15v-.14c1.93-.9,1.55-1.42.51-4.26l-2.07-6Z"/><path class="cls-1" d="M151.67,46.33c0,2.33,0,4,2.07,5.3v.13h-7v-.13c2.08-1.29,2.08-3,2.08-5.3V29.77c0-2.33,0-4-2.08-5.31v-.13h5.82a3.39,3.39,0,0,0,.52,1.17l.52.77L168.1,45.42V29.77c0-2.33.14-4-2.07-5.31v-.13h7v.13c-2.07,1.29-2.07,3-2.07,5.31V53.06c-2.71-1-4-2.33-5.69-4.79L151.67,30.15Z"/><path class="cls-1" d="M195.54,29.51a13.42,13.42,0,0,0-7.38-2.33c-5.43,0-9.18,4.14-9.18,10.22s4,11.51,10.09,11.51a16,16,0,0,0,8.28-2.58h.13l-1.94,4.79a13.39,13.39,0,0,1-5.95,1.29c-9.32,0-15.14-5.43-15.14-14.36,0-8.67,5.82-14.37,13.84-14.37a33.64,33.64,0,0,1,7.25,1Z"/><path class="cls-1" d="M204.6,48.27l5,.52A9.91,9.91,0,0,0,217,46.33h.12l-1.81,5.43H198.91v-.13c1.94-.77,1.67-3.88,1.67-5.69V30.16c0-1.82.27-4.92-1.67-5.7v-.13h12.54a4.76,4.76,0,0,0,2-.13V29c-1.29-1.42-2.85-1.68-4.66-1.68a21.31,21.31,0,0,0-4.14.39v7.63h4.79a3.27,3.27,0,0,0,1.68-.26h.13v4.54h-.13c-.65-1.3-2.33-1.3-3.49-1.3h-3Z"/><path class="cls-1" d="M11.52,63.93C17,63.93,21,66.52,21,71.18s-4.41,7.89-9.06,7.89a6.68,6.68,0,0,1-3.11-.65c3.62-.13,7.51-2.32,7.51-6.34,0-3.62-2.59-5.17-6-5.17a19.46,19.46,0,0,0-2.85.26V85.93c0,2.32-.12,4,2.21,5.3v.13H1.43v-.13c2.07-.77,1.81-3.88,1.81-5.69V69.75c0-1.81.26-4.91-1.81-5.69v-.13Z"/><path class="cls-1" d="M45.94,88.52C44.14,91,40.77,92,37.79,92a10.07,10.07,0,0,1-7.51-3c-2.19-2.45-2.19-5.17-2.19-8.14V69.75c0-1.81.38-4.92-1.81-5.69v-.13h7.89v.13c-2.08.77-1.81,3.88-1.81,5.69V80.89c0,5.56,2.33,8.14,6.6,8.14a7.36,7.36,0,0,0,6.08-3,5.64,5.64,0,0,0,.9-3.75V69.75c0-1.81.26-4.92-1.8-5.69v-.13H52v.13c-2.07.77-1.82,3.88-1.82,5.69V85.54c0,1.81-.25,4.92,1.82,5.69v.13H45.94Z"/><path class="cls-1" d="M66.78,74.93c2.72,0,6.59-.91,6.59-4.27,0-2.85-2.58-4.4-5.17-4.14l-2.71.26v8.15Zm2.33,13.45c3.36.27,6.86-1.28,6.86-5.3s-3.89-5.69-7.63-5.56l-2.85.26V88Zm-7.9-18.63c0-1.81.26-4.91-1.81-5.69v-.13h9.84c5.43,0,8.67,2.33,8.67,6.08,0,2.72-1.81,4.4-4.14,5.44,3.75.78,6.73,3.24,6.73,7.25a8.64,8.64,0,0,1-4.92,7.37c-3,1.42-6.21,1.29-9.32,1.29H59.4v-.13c2.07-.77,1.81-3.87,1.81-5.81Z"/><path class="cls-1" d="M99.64,88.39a10.62,10.62,0,0,0,7.25-2.59H107L105,91.36H87.87v-.12c2.07-.78,1.81-3.88,1.81-5.69V69.76c0-1.82.26-4.92-1.81-5.7v-.13h7.9v.13c-2.08.78-1.82,3.88-1.82,5.7V87.88Z"/><path class="cls-1" d="M115.18,69.75c0-1.81.26-4.91-1.82-5.69v-.13h7.9v.13c-2.07.78-1.81,3.88-1.81,5.69V85.54c0,1.82-.26,4.92,1.81,5.69v.13h-7.9v-.13c2.08-.77,1.82-3.87,1.82-5.69Z"/><path class="cls-1" d="M153.23,78.17c0-5.7-3.5-11.91-10.62-11.91-6.59,0-10.35,5.17-10.35,10.61,0,6.73,4.4,12.16,10.61,12.16s10.36-4.65,10.36-10.86m11,18.5a8,8,0,0,1-5.3,2.07c-4.14,0-10.09-4.66-13.33-7.25a14,14,0,0,1-3.37.52,14.41,14.41,0,0,1-14.74-14.36c0-8.54,7.24-14.37,15.52-14.37s15,5.57,15,14.11c0,4.92-2.85,10.22-7.37,12.29,3.36,3.1,8.15,7,12.94,7Z"/><path class="cls-1" d="M184,88.52C182.22,91,178.72,92,175.87,92a10.07,10.07,0,0,1-7.51-3c-2.19-2.45-2.19-5.17-2.19-8.14V69.75c0-1.81.38-4.92-1.81-5.69v-.13h7.89v.13c-2.08.77-1.81,3.88-1.81,5.69V80.89c0,5.56,2.33,8.14,6.6,8.14a7.36,7.36,0,0,0,6.08-3,5.59,5.59,0,0,0,.91-3.75V69.75c0-1.81.25-4.92-1.81-5.69v-.13h7.89v.13c-2.07.77-1.82,3.88-1.82,5.69V85.54c0,1.81-.25,4.92,1.82,5.69v.13H184Z"/><path class="cls-1" d="M203.69,87.87l5.31.51a10.33,10.33,0,0,0,7.64-2.58h.13L215,91.36H197.62v-.13c2.06-.77,1.81-3.88,1.81-5.69V69.75c0-1.81.25-4.92-1.81-5.69v-.13h13.2a5.23,5.23,0,0,0,2.07-.13H213v4.79h-.12c-1.3-1.42-3.11-1.68-4.92-1.68a42.06,42.06,0,0,0-4.28.26v7.76h4.92a3.79,3.79,0,0,0,1.81-.26h.14v4.4h-.14c-.64-1.16-2.33-1.16-3.62-1.16h-3.11Z"/><path class="cls-1" d="M260.64,23.17a2.64,2.64,0,0,1-2.85-2.46,2.88,2.88,0,0,1,5.7,0,2.65,2.65,0,0,1-2.85,2.46M283.8,19c10.35.52,18.76,10.36,18.76,22.4,0,12.42-8.8,22.51-19.67,22.51s-19.54-10.09-19.54-22.51c0-12.17,8.42-22,18.89-22.4-23.16-16.18-48.78-1.68-50.47,26.53.78,39.87,41.29,46.85,51.12,64.19,11-18,49-25.75,51.12-63.54C332.59,12.68,300.88,5.44,283.8,19"/><path class="cls-1" d="M283.67,19h.13c-.26,0-.65-.12-.91-.12s-.39.12-.64.12Z"/><path class="cls-1" d="M270.08,0c-9.7,15.27-7.51,27.05,6.47,43.87-3.49,4.27-4.4,7.24-4.14,11.26,4.66-.65,6.33-3.75,7-8.67,4.92,4.4,12.42,6.08,17.34,5.82-1-8.8-7.77-15.26-18.51-10.48C269.82,30.55,261.16,19,271.64,1.16Z"/><path class="cls-1" d="M16.81,115.88v3.47l-.68-.45a7.77,7.77,0,0,0-4-1.08,7.51,7.51,0,0,0-5.44,2.06,7.8,7.8,0,0,0,.17,10.85,8.39,8.39,0,0,0,5.95,2.09,8.1,8.1,0,0,0,2.82-.47v-5.19a3.25,3.25,0,0,0-1.11-2.28H19.1v9.52l-1.4.32a28,28,0,0,1-5.44.55,13.24,13.24,0,0,1-5.29-.9,9.76,9.76,0,0,1-4.34-3.52,9.94,9.94,0,0,1-1.19-2.48A9.18,9.18,0,0,1,1,125.59a9.48,9.48,0,0,1,1-4.27A10.38,10.38,0,0,1,5,117.75a12.46,12.46,0,0,1,7.84-2.37,19.21,19.21,0,0,1,4,.5"/><path class="cls-1" d="M23.54,134.8a2.84,2.84,0,0,0,1.32-2.27l-.05-14.28a3.2,3.2,0,0,0-.24-1.19,6.13,6.13,0,0,0-.9-1.23H30.2a8.39,8.39,0,0,1,5,1.3A4.15,4.15,0,0,1,37,120.7a4.07,4.07,0,0,1-1.21,3,5.86,5.86,0,0,1-1.34,1,12,12,0,0,1-2.08.66l1.76,2.34a47.34,47.34,0,0,0,3.76,4.24,15.94,15.94,0,0,0,3.58,2.87H37.2a3.37,3.37,0,0,1-2.26-1.22A30.67,30.67,0,0,1,32,130c-1.23-1.7-2.39-3.4-3.48-5.12q5-.67,5-3.84c0-2-1.39-3-4.18-3l-1,0v14.39a3,3,0,0,0,1.34,2.32Z"/><path class="cls-1" d="M42.43,134.8a4.08,4.08,0,0,0,1.06-1.13,3.24,3.24,0,0,0,.24-1.19l0-14.26a2.82,2.82,0,0,0-.26-1.29,4.36,4.36,0,0,0-.82-1.1H53.73v3.94a2.74,2.74,0,0,0-2.19-1.44H47.22v5.13H52v3.34a2.72,2.72,0,0,0-1.15-.87,4.77,4.77,0,0,0-1.56-.21H47.22v6.5a27.07,27.07,0,0,0,3.08.26h1.11a1.31,1.31,0,0,1,.31,0,5.65,5.65,0,0,0,1.19-.12A10.17,10.17,0,0,0,54,132a11.79,11.79,0,0,0,2.1-1.19l-1.37,4Z"/><path class="cls-1" d="M67.67,119l-2.61,6.79h5.11ZM57.33,134.8a7.49,7.49,0,0,0,1.45-1.09,4,4,0,0,0,.81-1.23l5.89-14.21a2.75,2.75,0,0,0,.19-1,2.64,2.64,0,0,0-.58-1.42h4.74l6.62,16.65a3.49,3.49,0,0,0,.75,1.23,7,7,0,0,0,1.49,1.09H71.83a2,2,0,0,0,.94-1.56,2.06,2.06,0,0,0-.13-.76L71,128.06H64.2l-1.71,4.42a1.85,1.85,0,0,0-.11.34,2.57,2.57,0,0,0,0,.48,2,2,0,0,0,.9,1.5Z"/><path class="cls-1" d="M76.64,119.48l1.16-3.65H92.45l-1.21,3.84a1.79,1.79,0,0,0-.28-.35,3.59,3.59,0,0,0-.27-.26,5.64,5.64,0,0,0-3.19-.71h-.6a4.24,4.24,0,0,0-.66.06v14.07a2.73,2.73,0,0,0,.26,1.16,3.37,3.37,0,0,0,1.11,1.16H81.43a4,4,0,0,0,1-1.15,2.58,2.58,0,0,0,.24-1.17v-14l-1.39,0h-.88a3.94,3.94,0,0,0-.72,0,7.48,7.48,0,0,0-3.08,1"/><path class="cls-1" d="M94.64,134.8a4.17,4.17,0,0,0,1-1.13,3.24,3.24,0,0,0,.24-1.19l0-14.26a2.69,2.69,0,0,0-.26-1.29,4.12,4.12,0,0,0-.82-1.1h11.06v3.94a2.72,2.72,0,0,0-2.19-1.44H99.43v5.13h4.81v3.34a2.72,2.72,0,0,0-1.15-.87,4.73,4.73,0,0,0-1.56-.21h-2.1v6.5a26.72,26.72,0,0,0,3.08.26h1.1a1.3,1.3,0,0,1,.32,0,5.62,5.62,0,0,0,1.18-.12,10.17,10.17,0,0,0,1.08-.3,11.79,11.79,0,0,0,2.1-1.19l-1.37,4Z"/><path class="cls-1" d="M111.11,134.8a2.86,2.86,0,0,0,1.31-2.27l0-14.28a3.2,3.2,0,0,0-.24-1.19,6.13,6.13,0,0,0-.9-1.23h6.53a8.39,8.39,0,0,1,5,1.3,4.15,4.15,0,0,1,1.83,3.57,4,4,0,0,1-1.21,3,5.65,5.65,0,0,1-1.34,1,12,12,0,0,1-2.08.66l1.76,2.34a47.34,47.34,0,0,0,3.76,4.24A16.21,16.21,0,0,0,129,134.8h-4.27a3.39,3.39,0,0,1-2.26-1.22,30.67,30.67,0,0,1-2.92-3.61c-1.23-1.7-2.39-3.4-3.48-5.12q5-.67,5-3.84c0-2-1.39-3-4.18-3l-1.05,0v14.39a3,3,0,0,0,1.34,2.32Z"/><path class="cls-1" d="M139.79,134.8a4.17,4.17,0,0,0,1-1.11,2.61,2.61,0,0,0,.26-1.21l0-14.26a2.68,2.68,0,0,0-.21-1.21,4.07,4.07,0,0,0-.87-1.18h6.5a9.28,9.28,0,0,1,5.26,1.27,4.16,4.16,0,0,1,1.87,3.65,4.51,4.51,0,0,1-1.86,3.73,7.49,7.49,0,0,1-4.77,1.45,5.56,5.56,0,0,1-1.87-.34,6.08,6.08,0,0,0,3.61-1.35,3.69,3.69,0,0,0,1.34-2.91,3.15,3.15,0,0,0-1.08-2.49,4.25,4.25,0,0,0-2.87-.93l-1,0-.58,0v14.5a2.58,2.58,0,0,0,.25,1.17,3.59,3.59,0,0,0,1,1.15Z"/><path class="cls-1" d="M161.89,119l-2.61,6.79h5.11ZM151.55,134.8a7.39,7.39,0,0,0,1.44-1.09,3.84,3.84,0,0,0,.82-1.23l5.89-14.21a3,3,0,0,0,.19-1,2.64,2.64,0,0,0-.58-1.42H164l6.63,16.65a3.49,3.49,0,0,0,.75,1.23,7,7,0,0,0,1.49,1.09h-6.86a2,2,0,0,0,.94-1.56,2.06,2.06,0,0,0-.13-.76l-1.69-4.42h-6.75l-1.71,4.42a1.85,1.85,0,0,0-.11.34,2.57,2.57,0,0,0,0,.48,2,2,0,0,0,.9,1.5Z"/><path class="cls-1" d="M174.73,134.8a2.86,2.86,0,0,0,1.31-2.27l0-14.28a3.39,3.39,0,0,0-.23-1.19,7.07,7.07,0,0,0-.9-1.23h6.52a8.39,8.39,0,0,1,5,1.3,4.15,4.15,0,0,1,1.83,3.57,4,4,0,0,1-1.21,3,5.65,5.65,0,0,1-1.34,1,12,12,0,0,1-2.08.66l1.76,2.34a47.34,47.34,0,0,0,3.76,4.24,16.21,16.21,0,0,0,3.59,2.87h-4.27a3.39,3.39,0,0,1-2.26-1.22A30.67,30.67,0,0,1,183.2,130c-1.23-1.7-2.39-3.4-3.48-5.12q5-.67,4.95-3.84c0-2-1.39-3-4.18-3l-1.05,0v14.39a3,3,0,0,0,1.34,2.32Z"/><path class="cls-1" d="M193.62,134.8a2.78,2.78,0,0,0,1.31-2.32V118.22a3.18,3.18,0,0,0-1.18-2.39h5.89a3.1,3.1,0,0,0-1.18,2.39v14.26a2.93,2.93,0,0,0,1.34,2.32Z"/><path class="cls-1" d="M202.51,130.56a13.13,13.13,0,0,0,3.19,1.56,9.84,9.84,0,0,0,3,.57,5.48,5.48,0,0,0,1.45-.18,3.82,3.82,0,0,0,1.18-.58,2.43,2.43,0,0,0,1.05-2,2.12,2.12,0,0,0-.89-1.69c-.32-.22-.69-.46-1.13-.71s-1-.5-1.55-.76l-2.32-1a6.94,6.94,0,0,1-2.66-2,4.53,4.53,0,0,1-.94-2.78,4.76,4.76,0,0,1,2-4,8.6,8.6,0,0,1,5.31-1.51h.6a5,5,0,0,1,.63,0,5.36,5.36,0,0,1,1.1.12c.39.08.89.21,1.51.38v3.5l-1.34-.94a5.38,5.38,0,0,0-2.85-.71,4.27,4.27,0,0,0-2.51.68,2.06,2.06,0,0,0-.25,3.34,10.68,10.68,0,0,0,2.68,1.5l2.24.92a11.19,11.19,0,0,1,1.92,1.18,4.53,4.53,0,0,1,1.92,3.64,5.17,5.17,0,0,1-2.21,4.27,8.86,8.86,0,0,1-5.55,1.7c-.34,0-.67,0-1,0s-.68-.05-1-.1a12.6,12.6,0,0,1-2.5-.58Z"/><path class="cls-1" d="M228.93,115.83h5.92a3.21,3.21,0,0,0-1.21,2.34v10.34a3.87,3.87,0,0,0,1.21,3.05,5,5,0,0,0,3.44,1.08,4.74,4.74,0,0,0,3.35-1.11,4.15,4.15,0,0,0,1.18-3.21v-10.2a3.25,3.25,0,0,0-1-2.29h5.71a3.55,3.55,0,0,0-1,1.23,2.75,2.75,0,0,0-.24,1.11v14.31a2.4,2.4,0,0,0,.29,1.24,5.6,5.6,0,0,0,1.15,1.08h-4.92v-1.53l-.66.5a8.47,8.47,0,0,1-5.15,1.47,7,7,0,0,1-5.66-2.2,4.57,4.57,0,0,1-.95-1.81,11.55,11.55,0,0,1-.26-2.72V118.17a2.61,2.61,0,0,0-.25-1.19,4.61,4.61,0,0,0-.93-1.15"/><path class="cls-1" d="M250.87,134.8a4.36,4.36,0,0,0,1-1.13,2.5,2.5,0,0,0,.25-1.19l.05-14.26a2.64,2.64,0,0,0-.21-1.16,4,4,0,0,0-.92-1.23h4.13l10.63,13.44V118.22a2.64,2.64,0,0,0-.21-1.16,4.1,4.1,0,0,0-.89-1.23h4.81a8.3,8.3,0,0,0-.82,1.1,3.2,3.2,0,0,0-.26,1.29v17.42a5.81,5.81,0,0,1-2-.87,7.52,7.52,0,0,1-1.51-1.19l-1.1-1.28-.71-.87L254.82,121v11.54a2.77,2.77,0,0,0,0,.49,2.37,2.37,0,0,0,.26.7,3.63,3.63,0,0,0,1.09,1.08Z"/><path class="cls-1" d="M273.05,134.8a2.78,2.78,0,0,0,1.31-2.32V118.22a3.18,3.18,0,0,0-1.18-2.39h5.9a3.08,3.08,0,0,0-1.19,2.39v14.26a2.93,2.93,0,0,0,1.34,2.32Z"/><path class="cls-1" d="M280.37,115.83h4.76l5.55,15.07,4.71-12.68a3.81,3.81,0,0,0,.13-.71,2.76,2.76,0,0,0-1-1.68h4.92l-8.05,19.68a9.17,9.17,0,0,1-1.92-1,6.19,6.19,0,0,1-2-2.84l-5.34-13.47-.63-1.18Z"/><path class="cls-1" d="M301.15,134.8a3.87,3.87,0,0,0,1.05-1.13,3.24,3.24,0,0,0,.24-1.19l0-14.26a2.69,2.69,0,0,0-.26-1.29,4,4,0,0,0-.81-1.1h11.05v3.94a2.71,2.71,0,0,0-2.18-1.44h-4.32v5.13h4.81v3.34a2.76,2.76,0,0,0-1.14-.87,4.76,4.76,0,0,0-1.57-.21h-2.1v6.5a27.07,27.07,0,0,0,3.08.26h1.1a1.37,1.37,0,0,1,.32,0,5.72,5.72,0,0,0,1.19-.12,10,10,0,0,0,1.07-.3,12.16,12.16,0,0,0,2.11-1.19l-1.37,4Z"/><path class="cls-1" d="M317.62,134.8a2.83,2.83,0,0,0,1.31-2.27l-.05-14.28a3,3,0,0,0-.24-1.19,6,6,0,0,0-.89-1.23h6.53a8.41,8.41,0,0,1,5,1.3,4.17,4.17,0,0,1,1.82,3.57,4.06,4.06,0,0,1-1.2,3,5.92,5.92,0,0,1-1.35,1,11.81,11.81,0,0,1-2.07.66l1.76,2.34a47.34,47.34,0,0,0,3.76,4.24,15.94,15.94,0,0,0,3.58,2.87h-4.26a3.39,3.39,0,0,1-2.27-1.22,31.74,31.74,0,0,1-2.92-3.61c-1.22-1.7-2.38-3.4-3.47-5.12,3.3-.45,4.94-1.73,4.94-3.84s-1.39-3-4.18-3l-1.05,0v14.39a3,3,0,0,0,1.34,2.32Z"/><path class="cls-1" d="M336,130.56a13.32,13.32,0,0,0,3.19,1.56,9.89,9.89,0,0,0,3,.57,5.48,5.48,0,0,0,1.45-.18,3.82,3.82,0,0,0,1.18-.58,2.41,2.41,0,0,0,1-2,2.09,2.09,0,0,0-.89-1.69c-.31-.22-.69-.46-1.13-.71a16.11,16.11,0,0,0-1.55-.76l-2.32-1a6.94,6.94,0,0,1-2.66-2,4.53,4.53,0,0,1-.94-2.78,4.76,4.76,0,0,1,2-4,8.6,8.6,0,0,1,5.31-1.51h.6a5,5,0,0,1,.63,0,5.53,5.53,0,0,1,1.11.12c.38.08.88.21,1.5.38v3.5l-1.34-.94a5.37,5.37,0,0,0-2.84-.71,4.28,4.28,0,0,0-2.52.68,2.07,2.07,0,0,0-.25,3.34,10.68,10.68,0,0,0,2.68,1.5l2.24.92a11.19,11.19,0,0,1,1.92,1.18,4.53,4.53,0,0,1,1.92,3.64,5.17,5.17,0,0,1-2.21,4.27,8.84,8.84,0,0,1-5.55,1.7l-1,0c-.34,0-.68-.05-1-.1a12.54,12.54,0,0,1-2.51-.58Z"/><path class="cls-1" d="M352.56,134.8a2.79,2.79,0,0,0,1.32-2.32V118.22a3.19,3.19,0,0,0-1.19-2.39h5.9a3.08,3.08,0,0,0-1.19,2.39v14.26a2.93,2.93,0,0,0,1.34,2.32Z"/><path class="cls-1" d="M360.9,119.48l1.16-3.65h14.65l-1.2,3.84a3.13,3.13,0,0,0-.28-.35,2.6,2.6,0,0,0-.28-.26,5.58,5.58,0,0,0-3.18-.71h-.61a4.24,4.24,0,0,0-.66.06v14.07a2.6,2.6,0,0,0,.27,1.16,3.33,3.33,0,0,0,1.1,1.16h-6.18a3.83,3.83,0,0,0,1-1.15,2.58,2.58,0,0,0,.25-1.17v-14l-1.39,0h-.89a3.94,3.94,0,0,0-.72,0,7.53,7.53,0,0,0-3.08,1"/><path class="cls-1" d="M377.45,115.83h5.35l4.89,8.1,3.76-5.71a4.39,4.39,0,0,0,.21-.43,1.57,1.57,0,0,0,.13-.65,2.14,2.14,0,0,0-.76-1.31h5.1l-7.2,10.81v5.84a2.91,2.91,0,0,0,1.33,2.32h-6.2a4.35,4.35,0,0,0,1.05-1.13l.28-1.19.06-5.87L380,118.22a6.07,6.07,0,0,0-.91-1.16q-.4-.36-1.62-1.23"/><path class="cls-1" d="M410,134.8a4.42,4.42,0,0,0,1-1.08,2.29,2.29,0,0,0,.34-1.24V118.22a2.59,2.59,0,0,0-.29-1.34,3.76,3.76,0,0,0-.89-1h5.79a3.7,3.7,0,0,0-1.13,2.39v5.11H424v-5.11a3.41,3.41,0,0,0-1.16-2.39h5.81a7.44,7.44,0,0,0-.91,1,2.69,2.69,0,0,0-.29,1.34v14.26a2.9,2.9,0,0,0,1.36,2.32h-6.12a4.53,4.53,0,0,0,1-1.13,2.7,2.7,0,0,0,.26-1.19v-6.73h-9.21v6.73a3,3,0,0,0,1.34,2.32Z"/><path class="cls-1" d="M435.73,124.75a8.85,8.85,0,0,0,1.92,5.71A6.5,6.5,0,0,0,443,133a5.49,5.49,0,0,0,4.42-2.05,7.89,7.89,0,0,0,1.71-5.23,8.75,8.75,0,0,0-2-5.78,6.15,6.15,0,0,0-4.91-2.38,6,6,0,0,0-4.68,2,7.44,7.44,0,0,0-1.79,5.19m-3.55.47a9.36,9.36,0,0,1,2.93-7,10.38,10.38,0,0,1,7.44-2.8,10,10,0,0,1,7.29,2.74,9.57,9.57,0,0,1,2.78,7.13,9.73,9.73,0,0,1-2.82,7.26,10.28,10.28,0,0,1-7.49,2.76,9.92,9.92,0,0,1-7.29-2.8,9.76,9.76,0,0,1-2.84-7.25"/><path class="cls-1" d="M455.6,130.56a13.07,13.07,0,0,0,3.18,1.56,9.84,9.84,0,0,0,3,.57,5.46,5.46,0,0,0,1.44-.18,3.61,3.61,0,0,0,1.18-.58,2.42,2.42,0,0,0,1.06-2,2.1,2.1,0,0,0-.9-1.69c-.31-.22-.69-.46-1.12-.71s-1-.5-1.56-.76l-2.31-1a6.79,6.79,0,0,1-2.66-2,4.54,4.54,0,0,1-.95-2.78,4.74,4.74,0,0,1,2-4,8.57,8.57,0,0,1,5.3-1.51h.6a5.12,5.12,0,0,1,.64,0,5.36,5.36,0,0,1,1.1.12c.38.08.89.21,1.5.38v3.5l-1.34-.94a5.38,5.38,0,0,0-2.85-.71,4.24,4.24,0,0,0-2.5.68,2.06,2.06,0,0,0-1,1.76,2,2,0,0,0,.73,1.58,10.78,10.78,0,0,0,2.69,1.5l2.23.92a10.82,10.82,0,0,1,1.92,1.18,4.53,4.53,0,0,1,1.92,3.64,5.17,5.17,0,0,1-2.21,4.27,8.84,8.84,0,0,1-5.55,1.7l-1,0c-.34,0-.68-.05-1-.1a12.44,12.44,0,0,1-2.5-.58Z"/><path class="cls-1" d="M472.2,134.8a4,4,0,0,0,1-1.11,2.49,2.49,0,0,0,.26-1.21l0-14.26a2.68,2.68,0,0,0-.21-1.21,3.72,3.72,0,0,0-.87-1.18h6.5a9.28,9.28,0,0,1,5.26,1.27,4.16,4.16,0,0,1,1.87,3.65,4.51,4.51,0,0,1-1.86,3.73,7.47,7.47,0,0,1-4.77,1.45,5.56,5.56,0,0,1-1.87-.34,6.08,6.08,0,0,0,3.61-1.35,3.69,3.69,0,0,0,1.34-2.91,3.12,3.12,0,0,0-1.08-2.49,4.25,4.25,0,0,0-2.87-.93l-1,0-.58,0v14.5a2.58,2.58,0,0,0,.25,1.17,3.72,3.72,0,0,0,1,1.15Z"/><path class="cls-1" d="M488.64,134.8a2.79,2.79,0,0,0,1.32-2.32V118.22a3.19,3.19,0,0,0-1.19-2.39h5.9a3.08,3.08,0,0,0-1.19,2.39v14.26a2.91,2.91,0,0,0,1.35,2.32Z"/><path class="cls-1" d="M497,119.48l1.16-3.65h14.65l-1.2,3.84a3.13,3.13,0,0,0-.28-.35c-.07-.07-.15-.15-.28-.26a5.58,5.58,0,0,0-3.18-.71h-.61a4.24,4.24,0,0,0-.66.06v14.07a2.6,2.6,0,0,0,.27,1.16,3.33,3.33,0,0,0,1.1,1.16h-6.18a3.83,3.83,0,0,0,1-1.15,2.58,2.58,0,0,0,.25-1.17v-14l-1.4,0h-.88a3.94,3.94,0,0,0-.72,0,7.53,7.53,0,0,0-3.08,1"/><path class="cls-1" d="M520.79,119l-2.6,6.79h5.11ZM510.45,134.8a7.49,7.49,0,0,0,1.45-1.09,3.84,3.84,0,0,0,.82-1.23l5.89-14.21a2.75,2.75,0,0,0,.19-1,2.72,2.72,0,0,0-.58-1.42H523l6.63,16.65a3.49,3.49,0,0,0,.75,1.23,6.76,6.76,0,0,0,1.49,1.09H525a2,2,0,0,0,.95-1.56,2.06,2.06,0,0,0-.13-.76l-1.69-4.42h-6.76l-1.71,4.42a1.7,1.7,0,0,0-.1.34,2.57,2.57,0,0,0,0,.48,2,2,0,0,0,.89,1.5Z"/><path class="cls-1" d="M533.61,134.8a3,3,0,0,0,1.29-2.32V118.22a3.51,3.51,0,0,0-1-2.39h5.63a3.87,3.87,0,0,0-1.19,2.42v14a23.16,23.16,0,0,0,2.95.24h1c.31-.06.55-.09.71-.11a8.92,8.92,0,0,0,2.29-.45,5.06,5.06,0,0,0,.88-.39c.3-.18.66-.41,1.06-.69l-1.37,4Z"/><path class="cls-1" d="M548.92,130.56a13.25,13.25,0,0,0,3.18,1.56,10,10,0,0,0,3,.57,5.48,5.48,0,0,0,1.45-.18,3.82,3.82,0,0,0,1.18-.58,2.43,2.43,0,0,0,1-2,2.09,2.09,0,0,0-.89-1.69c-.32-.22-.69-.46-1.13-.71s-1-.5-1.55-.76l-2.32-1a6.94,6.94,0,0,1-2.66-2,4.53,4.53,0,0,1-.94-2.78,4.76,4.76,0,0,1,2-4,8.59,8.59,0,0,1,5.3-1.51h.61a5,5,0,0,1,.63,0,5.53,5.53,0,0,1,1.11.12c.38.08.88.21,1.5.38v3.5l-1.35-.94a5.32,5.32,0,0,0-2.84-.71,4.27,4.27,0,0,0-2.51.68,2.06,2.06,0,0,0-.25,3.34,10.49,10.49,0,0,0,2.68,1.5l2.24.92a11.19,11.19,0,0,1,1.92,1.18,4.53,4.53,0,0,1,1.92,3.64,5.19,5.19,0,0,1-2.21,4.27,8.84,8.84,0,0,1-5.55,1.7c-.34,0-.67,0-1,0s-.69-.05-1-.1a12.44,12.44,0,0,1-2.5-.58Z"/></svg>